<?xml version="1.0" standalone="no"?>
<svg xmlns="http://www.w3.org/2000/svg" version="1.1" xmlns:xlink="http://www.w3.org/1999/xlink" width="512" height="512" x="0" y="0" viewBox="0 0 277.227 277.227" style="enable-background:new 0 0 512 512" xml:space="preserve" class=""><g><path d="M220.693 62.08c-4.267-14.827-10.24-26.88-17.92-36.053-7.787-9.173-17.067-15.893-27.947-19.947C163.947 2.027 151.787 0 138.453 0c-13.227 0-25.28 2.027-36.16 6.08-10.88 4.053-20.16 10.773-27.84 19.947-7.787 9.173-13.76 21.227-17.92 36.053-4.16 14.827-6.293 32.96-6.293 54.293v43.52c0 21.333 2.133 39.467 6.4 54.4 4.16 14.933 10.24 27.093 18.027 36.373 7.787 9.28 17.067 16.107 27.947 20.267s22.933 6.293 36.16 6.293c13.333 0 25.387-2.133 36.16-6.293 10.773-4.16 20.053-10.987 27.733-20.267 7.68-9.387 13.653-21.44 17.813-36.373 4.16-14.933 6.293-33.067 6.293-54.4h.213v-43.52c.001-21.333-2.133-39.466-6.293-54.293zM181.76 166.4c0 13.547-.96 25.173-2.773 34.667-1.813 9.493-4.587 17.173-8.213 23.147-3.627 5.973-8.107 10.347-13.44 13.013-5.333 2.667-11.52 4.053-18.56 4.053-6.933 0-13.12-1.387-18.56-4.053-5.44-2.773-10.027-7.04-13.76-13.013-3.733-5.867-6.507-13.653-8.533-23.147-2.027-9.493-2.987-21.12-2.987-34.667v-56.96c0-13.653.96-25.28 2.88-34.56 1.92-9.28 4.693-16.853 8.427-22.613 3.733-5.653 8.213-9.813 13.653-12.373 5.333-2.56 11.52-3.84 18.453-3.84s13.12 1.28 18.453 3.84c5.44 2.453 9.92 6.613 13.653 12.373 3.733 5.76 6.507 13.333 8.427 22.613s2.88 20.8 2.88 34.56v56.96z" fill="#fcc066" opacity="1" data-original="#000000" class=""/></g></svg>